<?xml version="1.0" encoding="UTF-8" standalone="no" ?>
<!DOCTYPE svg PUBLIC "-//W3C//DTD SVG 1.1//EN" "http://www.w3.org/Graphics/SVG/1.1/DTD/svg11.dtd">
<svg xmlns="http://www.w3.org/2000/svg" xmlns:xlink="http://www.w3.org/1999/xlink" version="1.1" width="274" height="113.99575999999999" xml:space="preserve">
<desc>Created with Fabric.js 1.6.0-rc.1</desc>
<defs></defs>
<g style="stroke: none; stroke-width: 1; stroke-dasharray: none; stroke-linecap: butt; stroke-linejoin: miter; stroke-miterlimit: 10; fill: none; fill-rule: nonzero; opacity: 1;" transform="translate(10 10) scale(0.23 0.23)" >
  <path d="M 185.379 304.552 H 0 v 26.483 c 0 4.875 3.953 8.828 8.828 8.828 h 114.759 h 61.793 V 304.552 z M 167.724 331.034 c -4.875 0 -8.828 -3.953 -8.828 -8.828 c 0 -4.875 3.953 -8.828 8.828 -8.828 s 8.828 3.953 8.828 8.828 C 176.552 327.082 172.599 331.034 167.724 331.034 z" style="stroke: none; stroke-width: 1; stroke-dasharray: none; stroke-linecap: butt; stroke-linejoin: miter; stroke-miterlimit: 10; fill: #BEC8DC; fill-rule: nonzero; opacity: 1;" transform=" matrix(1 0 0 1 0 0) " stroke-linecap="round" />
  <path d="M 185.379 286.897 H 17.655 V 128 h 300.138 v 105.931 h -44.138 c -4.875 0 -8.828 3.953 -8.828 8.828 v 8.828 h 17.655 h 8.828 h 194.207 v 114.759 H 361.931 V 384 h 52.966 h 88.276 V 242.759 c 0 -4.875 -3.953 -8.828 -8.828 -8.828 H 335.448 V 119.172 c 0 -4.875 -3.953 -8.828 -8.828 -8.828 H 8.828 c -4.875 0 -8.828 3.953 -8.828 8.828 v 185.379 h 185.379 V 286.897 z" style="stroke: none; stroke-width: 1; stroke-dasharray: none; stroke-linecap: butt; stroke-linejoin: miter; stroke-miterlimit: 10; fill: #464655; fill-rule: nonzero; opacity: 1;" transform=" matrix(1 0 0 1 0 0) " stroke-linecap="round" />
  <path d="M 273.655 233.931 h 44.138 V 128 H 17.655 v 158.897 h 167.724 v -26.483 c 0 -4.875 3.953 -8.828 8.828 -8.828 h 70.621 v -8.828 C 264.828 237.884 268.78 233.931 273.655 233.931 z" style="stroke: none; stroke-width: 1; stroke-dasharray: none; stroke-linecap: butt; stroke-linejoin: miter; stroke-miterlimit: 10; fill: #99cd32; fill-rule: nonzero; opacity: 1;" transform=" matrix(1 0 0 1 0 0) " stroke-linecap="round" />
  <polygon points="185.38,357.52 120.06,357.52 114.76,384 185.38,384 " style="stroke: none; stroke-width: 1; stroke-dasharray: none; stroke-linecap: butt; stroke-linejoin: miter; stroke-miterlimit: 10; fill: #AFBBD0; fill-rule: nonzero; opacity: 1;" transform="  matrix(1 0 0 1 0 0) "/>
  <polygon points="185.38,339.86 123.59,339.86 120.06,357.52 120.06,357.52 185.38,357.52 " style="stroke: none; stroke-width: 1; stroke-dasharray: none; stroke-linecap: butt; stroke-linejoin: miter; stroke-miterlimit: 10; fill: #96A5B9; fill-rule: nonzero; opacity: 1;" transform="  matrix(1 0 0 1 0 0) "/>
  <path d="M 185.379 392.828 V 384 h -70.621 c -4.875 0 -8.828 3.953 -8.828 8.828 s 3.953 8.828 8.828 8.828 h 79.448 C 189.332 401.655 185.379 397.703 185.379 392.828 z" style="stroke: none; stroke-width: 1; stroke-dasharray: none; stroke-linecap: butt; stroke-linejoin: miter; stroke-miterlimit: 10; fill: #BEC8DC; fill-rule: nonzero; opacity: 1;" transform=" matrix(1 0 0 1 0 0) " stroke-linecap="round" />
  <circle cx="167.728" cy="322.20799999999997" r="8.828" style="stroke: none; stroke-width: 1; stroke-dasharray: none; stroke-linecap: butt; stroke-linejoin: miter; stroke-miterlimit: 10; fill: #96A5B9; fill-rule: nonzero; opacity: 1;" transform="  matrix(1 0 0 1 0 0) "/>
  <rect x="300.14" y="366.35" rx="0" ry="0" width="8.83" height="17.66" style="stroke: none; stroke-width: 1; stroke-dasharray: none; stroke-linecap: butt; stroke-linejoin: miter; stroke-miterlimit: 10; fill: #464655; fill-rule: nonzero; opacity: 1;" transform=" matrix(1 0 0 1 0 0) "/>
  <path d="M 485.517 251.586 H 291.31 c 4.875 0 8.828 3.953 8.828 8.828 v 105.931 h 8.828 v -61.793 c 0 -4.875 3.953 -8.828 8.828 -8.828 h 35.31 c 4.875 0 8.828 3.953 8.828 8.828 v 61.793 h 123.586 V 251.586 z" style="stroke: none; stroke-width: 1; stroke-dasharray: none; stroke-linecap: butt; stroke-linejoin: miter; stroke-miterlimit: 10; fill: #99cd32; fill-rule: nonzero; opacity: 1;" transform=" matrix(1 0 0 1 0 0) " stroke-linecap="round" />
  <path d="M 503.172 384 h -88.276 c 0 4.875 -3.953 8.828 -8.828 8.828 h -44.138 c 0 4.875 -3.953 8.828 -8.828 8.828 h 150.069 c 4.875 0 8.828 -3.953 8.828 -8.828 S 508.047 384 503.172 384 z" style="stroke: none; stroke-width: 1; stroke-dasharray: none; stroke-linecap: butt; stroke-linejoin: miter; stroke-miterlimit: 10; fill: #AFBBD0; fill-rule: nonzero; opacity: 1;" transform=" matrix(1 0 0 1 0 0) " stroke-linecap="round" />
  <path d="M 308.966 392.828 V 384 h -8.828 v 8.828 c 0 4.875 -3.953 8.828 -8.828 8.828 h 26.483 C 312.918 401.655 308.966 397.703 308.966 392.828 z" style="stroke: none; stroke-width: 1; stroke-dasharray: none; stroke-linecap: butt; stroke-linejoin: miter; stroke-miterlimit: 10; fill: #AFBBD0; fill-rule: nonzero; opacity: 1;" transform=" matrix(1 0 0 1 0 0) " stroke-linecap="round" />
  <path d="M 361.931 392.828 h 44.138 c 4.875 0 8.828 -3.953 8.828 -8.828 h -52.966 V 392.828 z" style="stroke: none; stroke-width: 1; stroke-dasharray: none; stroke-linecap: butt; stroke-linejoin: miter; stroke-miterlimit: 10; fill: #96A5B9; fill-rule: nonzero; opacity: 1;" transform=" matrix(1 0 0 1 0 0) " stroke-linecap="round" />
  <path d="M 300.138 392.828 V 384 v -17.655 V 260.414 c 0 -4.875 -3.953 -8.828 -8.828 -8.828 h -8.828 h -17.655 h -70.621 c -4.875 0 -8.828 3.953 -8.828 8.828 v 26.483 v 17.655 v 35.31 v 17.655 V 384 v 8.828 c 0 4.875 3.953 8.828 8.828 8.828 h 26.483 h 44.138 h 26.483 C 296.185 401.655 300.138 397.703 300.138 392.828 z M 242.759 397.241 c -2.438 0 -4.414 -1.976 -4.414 -4.414 s 1.976 -4.414 4.414 -4.414 s 4.414 1.976 4.414 4.414 S 245.196 397.241 242.759 397.241 z M 264.828 384 H 220.69 h -26.483 V 269.241 h 97.103 V 384 H 264.828 z" style="stroke: none; stroke-width: 1; stroke-dasharray: none; stroke-linecap: butt; stroke-linejoin: miter; stroke-miterlimit: 10; fill: #707384; fill-rule: nonzero; opacity: 1;" transform=" matrix(1 0 0 1 0 0) " stroke-linecap="round" />
  <polygon points="291.31,269.24 194.21,269.24 194.21,384 220.69,384 264.83,384 291.31,384 " style="stroke: none; stroke-width: 1; stroke-dasharray: none; stroke-linecap: butt; stroke-linejoin: miter; stroke-miterlimit: 10; fill: #99cd32; fill-rule: nonzero; opacity: 1;" transform="  matrix(1 0 0 1 0 0) "/>
  <circle cx="242.754" cy="392.824" r="4.414" style="stroke: none; stroke-width: 1; stroke-dasharray: none; stroke-linecap: butt; stroke-linejoin: miter; stroke-miterlimit: 10; fill: #464655; fill-rule: nonzero; opacity: 1;" transform="  matrix(1 0 0 1 0 0) "/>
  <path d="M 361.931 392.828 V 384 v -17.655 v -61.793 c 0 -4.875 -3.953 -8.828 -8.828 -8.828 h -35.31 c -4.875 0 -8.828 3.953 -8.828 8.828 v 61.793 V 384 v 8.828 c 0 4.875 3.953 8.828 8.828 8.828 h 35.31 C 357.978 401.655 361.931 397.703 361.931 392.828 z M 335.448 397.241 c -2.438 0 -4.414 -1.976 -4.414 -4.414 s 1.976 -4.414 4.414 -4.414 s 4.414 1.976 4.414 4.414 S 337.886 397.241 335.448 397.241 z M 317.793 384 v -70.621 h 35.31 V 384 H 317.793 z" style="stroke: none; stroke-width: 1; stroke-dasharray: none; stroke-linecap: butt; stroke-linejoin: miter; stroke-miterlimit: 10; fill: #707384; fill-rule: nonzero; opacity: 1;" transform=" matrix(1 0 0 1 0 0) " stroke-linecap="round" />
  <rect x="317.79" y="313.38" rx="0" ry="0" width="35.31" height="70.62" style="stroke: none; stroke-width: 1; stroke-dasharray: none; stroke-linecap: butt; stroke-linejoin: miter; stroke-miterlimit: 10; fill: #99cd32; fill-rule: nonzero; opacity: 1;" transform=" matrix(1 0 0 1 0 0) "/>
  <circle cx="335.44399999999996" cy="392.824" r="4.414" style="stroke: none; stroke-width: 1; stroke-dasharray: none; stroke-linecap: butt; stroke-linejoin: miter; stroke-miterlimit: 10; fill: #464655; fill-rule: nonzero; opacity: 1;" transform="  matrix(1 0 0 1 0 0) "/>
</g>
  <g transform="translate(205.2 57.21) scale(1.4 1)">
   <text font-family="King Of The World" font-size="40" font-weight="normal" style="stroke: none; stroke-width: 1; stroke-dasharray: none; stroke-linecap: butt; stroke-linejoin: miter; stroke-miterlimit: 10; fill: #000000; fill-rule: nonzero; opacity: 1;" ><tspan x="-47.5" y="8.98" style="stroke: none; stroke-width: 0; stroke-dasharray: none; stroke-linecap: butt; stroke-linejoin: miter; stroke-miterlimit: 4; fill: #000000; fill-rule: ; opacity: 1;">O</tspan><tspan x="-20.5" y="8.98" style="stroke: none; stroke-width: 0; stroke-dasharray: none; stroke-linecap: butt; stroke-linejoin: miter; stroke-miterlimit: 4; fill: #000000; fill-rule: ; opacity: 1;">F</tspan><tspan x="2" y="8.98" style="stroke: none; stroke-width: 0; stroke-dasharray: none; stroke-linecap: butt; stroke-linejoin: miter; stroke-miterlimit: 4; fill: #000000; fill-rule: ; opacity: 1;">M</tspan></text>
 </g>
  <g transform="translate(197.75 92.94) scale(0.43 0.43)">
   <text font-family="ADAMCG PRO" font-size="40" font-weight="normal" style="stroke: none; stroke-width: 1; stroke-dasharray: none; stroke-linecap: butt; stroke-linejoin: miter; stroke-miterlimit: 10; fill: #000000; fill-rule: nonzero; opacity: 1;" ><tspan x="-124.5" y="8.98" style="stroke: none; stroke-width: 0; stroke-dasharray: none; stroke-linecap: butt; stroke-linejoin: miter; stroke-miterlimit: 4; fill: #000000; fill-rule: ; opacity: 1;">O</tspan><tspan x="-90.5" y="8.98" style="stroke: none; stroke-width: 0; stroke-dasharray: none; stroke-linecap: butt; stroke-linejoin: miter; stroke-miterlimit: 4; fill: #000000; fill-rule: ; opacity: 1;">n</tspan><tspan x="-60.5" y="8.98" style="stroke: none; stroke-width: 0; stroke-dasharray: none; stroke-linecap: butt; stroke-linejoin: miter; stroke-miterlimit: 4; fill: #000000; fill-rule: ; opacity: 1;">e</tspan><tspan x="-37.5" y="8.98" style="stroke: none; stroke-width: 0; stroke-dasharray: none; stroke-linecap: butt; stroke-linejoin: miter; stroke-miterlimit: 4; fill: #000000; fill-rule: ; opacity: 1;"> </tspan><tspan x="-25.5" y="8.98" style="stroke: none; stroke-width: 0; stroke-dasharray: none; stroke-linecap: butt; stroke-linejoin: miter; stroke-miterlimit: 4; fill: #000000; fill-rule: ; opacity: 1;">f</tspan><tspan x="-4.5" y="8.98" style="stroke: none; stroke-width: 0; stroke-dasharray: none; stroke-linecap: butt; stroke-linejoin: miter; stroke-miterlimit: 4; fill: #000000; fill-rule: ; opacity: 1;">o</tspan><tspan x="29.5" y="8.98" style="stroke: none; stroke-width: 0; stroke-dasharray: none; stroke-linecap: butt; stroke-linejoin: miter; stroke-miterlimit: 4; fill: #000000; fill-rule: ; opacity: 1;">r</tspan><tspan x="55.5" y="8.98" style="stroke: none; stroke-width: 0; stroke-dasharray: none; stroke-linecap: butt; stroke-linejoin: miter; stroke-miterlimit: 4; fill: #000000; fill-rule: ; opacity: 1;"> </tspan><tspan x="67.5" y="8.98" style="stroke: none; stroke-width: 0; stroke-dasharray: none; stroke-linecap: butt; stroke-linejoin: miter; stroke-miterlimit: 4; fill: #000000; fill-rule: ; opacity: 1;">m</tspan><tspan x="110" y="8.98" style="stroke: none; stroke-width: 0; stroke-dasharray: none; stroke-linecap: butt; stroke-linejoin: miter; stroke-miterlimit: 4; fill: #000000; fill-rule: ; opacity: 1;">e</tspan></text>
 </g>
</svg>